<svg width="775" height="50" viewBox="0 0 775 50" fill="none" xmlns="http://www.w3.org/2000/svg">
<path d="M730.002 26.9683L720.01 21.1806L719.993 32.7276L730.002 26.9683ZM46.0001 27L47.9885 27.0028L47.9913 25.0028L46.0029 25L46.0001 27ZM51.9652 27.0084L55.9419 27.0141L55.9448 25.0141L51.968 25.0084L51.9652 27.0084ZM59.9187 27.0197L63.8954 27.0253L63.8983 25.0253L59.9215 25.0197L59.9187 27.0197ZM67.8722 27.031L71.8489 27.0366L71.8517 25.0366L67.875 25.031L67.8722 27.031ZM75.8257 27.0422L79.8024 27.0478L79.8052 25.0479L75.8285 25.0422L75.8257 27.0422ZM83.7792 27.0535L87.7559 27.0591L87.7587 25.0591L83.782 25.0535L83.7792 27.0535ZM91.7326 27.0647L95.7094 27.0704L95.7122 25.0704L91.7355 25.0647L91.7326 27.0647ZM99.6861 27.076L103.663 27.0816L103.666 25.0816L99.689 25.076L99.6861 27.076ZM107.64 27.0873L111.616 27.0929L111.619 25.0929L107.642 25.0873L107.64 27.0873ZM115.593 27.0985L119.57 27.1041L119.573 25.1041L115.596 25.0985L115.593 27.0985ZM123.547 27.1098L127.523 27.1154L127.526 25.1154L123.549 25.1098L123.547 27.1098ZM131.5 27.121L135.477 27.1267L135.48 25.1267L131.503 25.121L131.5 27.121ZM139.454 27.1323L143.43 27.1379L143.433 25.1379L139.456 25.1323L139.454 27.1323ZM147.407 27.1436L151.384 27.1492L151.387 25.1492L147.41 25.1436L147.407 27.1436ZM155.361 27.1548L159.337 27.1604L159.34 25.1604L155.363 25.1548L155.361 27.1548ZM163.314 27.1661L167.291 27.1717L167.294 25.1717L163.317 25.1661L163.314 27.1661ZM171.268 27.1773L175.244 27.183L175.247 25.183L171.27 25.1773L171.268 27.1773ZM179.221 27.1886L183.198 27.1942L183.201 25.1942L179.224 25.1886L179.221 27.1886ZM187.174 27.1998L191.151 27.2055L191.154 25.2055L187.177 25.1998L187.174 27.1998ZM195.128 27.2111L199.105 27.2167L199.108 25.2167L195.131 25.2111L195.128 27.2111ZM203.081 27.2224L207.058 27.228L207.061 25.228L203.084 25.2224L203.081 27.2224ZM211.035 27.2336L215.012 27.2393L215.014 25.2393L211.038 25.2336L211.035 27.2336ZM218.988 27.2449L222.965 27.2505L222.968 25.2505L218.991 25.2449L218.988 27.2449ZM226.942 27.2561L230.919 27.2618L230.921 25.2618L226.945 25.2561L226.942 27.2561ZM234.895 27.2674L238.872 27.273L238.875 25.273L234.898 25.2674L234.895 27.2674ZM242.849 27.2787L246.826 27.2843L246.828 25.2843L242.852 25.2787L242.849 27.2787ZM250.802 27.2899L254.779 27.2955L254.782 25.2955L250.805 25.2899L250.802 27.2899ZM258.756 27.3012L262.733 27.3068L262.735 25.3068L258.759 25.3012L258.756 27.3012ZM266.709 27.3124L270.686 27.3181L270.689 25.3181L266.712 25.3124L266.709 27.3124ZM274.663 27.3237L278.64 27.3293L278.642 25.3293L274.666 25.3237L274.663 27.3237ZM282.616 27.335L286.593 27.3406L286.596 25.3406L282.619 25.335L282.616 27.335ZM290.57 27.3462L294.546 27.3518L294.549 25.3518L290.573 25.3462L290.57 27.3462ZM298.523 27.3575L302.5 27.3631L302.503 25.3631L298.526 25.3575L298.523 27.3575ZM306.477 27.3687L310.453 27.3744L310.456 25.3744L306.48 25.3687L306.477 27.3687ZM314.43 27.38L318.407 27.3856L318.41 25.3856L314.433 25.38L314.43 27.38ZM322.384 27.3912L326.36 27.3969L326.363 25.3969L322.387 25.3913L322.384 27.3912ZM330.337 27.4025L334.314 27.4081L334.317 25.4081L330.34 25.4025L330.337 27.4025ZM338.291 27.4138L342.267 27.4194L342.27 25.4194L338.293 25.4138L338.291 27.4138ZM346.244 27.425L350.221 27.4307L350.224 25.4307L346.247 25.425L346.244 27.425ZM354.198 27.4363L358.174 27.4419L358.177 25.4419L354.2 25.4363L354.198 27.4363ZM362.151 27.4475L366.128 27.4532L366.131 25.4532L362.154 25.4475L362.151 27.4475ZM370.105 27.4588L374.081 27.4644L374.084 25.4644L370.107 25.4588L370.105 27.4588ZM378.058 27.4701L382.035 27.4757L382.038 25.4757L378.061 25.4701L378.058 27.4701ZM386.012 27.4813L389.988 27.487L389.991 25.487L386.014 25.4813L386.012 27.4813ZM393.965 27.4926L397.942 27.4982L397.945 25.4982L393.968 25.4926L393.965 27.4926ZM401.919 27.5038L405.895 27.5095L405.898 25.5095L401.921 25.5038L401.919 27.5038ZM409.872 27.5151L413.849 27.5207L413.852 25.5207L409.875 25.5151L409.872 27.5151ZM417.825 27.5264L421.802 27.532L421.805 25.532L417.828 25.5264L417.825 27.5264ZM425.779 27.5376L429.756 27.5432L429.759 25.5432L425.782 25.5376L425.779 27.5376ZM433.732 27.5489L437.709 27.5545L437.712 25.5545L433.735 25.5489L433.732 27.5489ZM441.686 27.5601L445.663 27.5658L445.666 25.5658L441.689 25.5601L441.686 27.5601ZM449.639 27.5714L453.616 27.577L453.619 25.577L449.642 25.5714L449.639 27.5714ZM457.593 27.5827L461.57 27.5883L461.572 25.5883L457.596 25.5827L457.593 27.5827ZM465.546 27.5939L469.523 27.5995L469.526 25.5995L465.549 25.5939L465.546 27.5939ZM473.5 27.6052L477.477 27.6108L477.479 25.6108L473.503 25.6052L473.5 27.6052ZM481.453 27.6164L485.43 27.6221L485.433 25.6221L481.456 25.6164L481.453 27.6164ZM489.407 27.6277L493.384 27.6333L493.386 25.6333L489.41 25.6277L489.407 27.6277ZM497.36 27.6389L501.337 27.6446L501.34 25.6446L497.363 25.6389L497.36 27.6389ZM505.314 27.6502L509.291 27.6558L509.293 25.6558L505.317 25.6502L505.314 27.6502ZM513.267 27.6615L517.244 27.6671L517.247 25.6671L513.27 25.6615L513.267 27.6615ZM521.221 27.6727L525.198 27.6784L525.2 25.6784L521.224 25.6727L521.221 27.6727ZM529.174 27.684L533.151 27.6896L533.154 25.6896L529.177 25.684L529.174 27.684ZM537.128 27.6952L541.104 27.7009L541.107 25.7009L537.131 25.6952L537.128 27.6952ZM545.081 27.7065L549.058 27.7121L549.061 25.7121L545.084 25.7065L545.081 27.7065ZM553.035 27.7178L557.011 27.7234L557.014 25.7234L553.038 25.7178L553.035 27.7178ZM560.988 27.729L564.965 27.7346L564.968 25.7347L560.991 25.729L560.988 27.729ZM568.942 27.7403L572.918 27.7459L572.921 25.7459L568.945 25.7403L568.942 27.7403ZM576.895 27.7515L580.872 27.7572L580.875 25.7572L576.898 25.7515L576.895 27.7515ZM584.849 27.7628L588.825 27.7684L588.828 25.7684L584.851 25.7628L584.849 27.7628ZM592.802 27.7741L596.779 27.7797L596.782 25.7797L592.805 25.7741L592.802 27.7741ZM600.756 27.7853L604.732 27.7909L604.735 25.7909L600.758 25.7853L600.756 27.7853ZM608.709 27.7966L612.686 27.8022L612.689 25.8022L608.712 25.7966L608.709 27.7966ZM616.663 27.8078L620.639 27.8135L620.642 25.8135L616.665 25.8078L616.663 27.8078ZM624.616 27.8191L628.593 27.8247L628.596 25.8247L624.619 25.8191L624.616 27.8191ZM632.57 27.8303L636.546 27.836L636.549 25.836L632.572 25.8304L632.57 27.8303ZM640.523 27.8416L644.5 27.8472L644.503 25.8472L640.526 25.8416L640.523 27.8416ZM648.477 27.8529L652.453 27.8585L652.456 25.8585L648.479 25.8529L648.477 27.8529ZM656.43 27.8641L660.407 27.8698L660.41 25.8698L656.433 25.8641L656.43 27.8641ZM664.383 27.8754L668.36 27.881L668.363 25.881L664.386 25.8754L664.383 27.8754ZM672.337 27.8866L676.314 27.8923L676.317 25.8923L672.34 25.8866L672.337 27.8866ZM680.29 27.8979L684.267 27.9035L684.27 25.9035L680.293 25.8979L680.29 27.8979ZM688.244 27.9092L692.221 27.9148L692.224 25.9148L688.247 25.9092L688.244 27.9092ZM696.197 27.9204L700.174 27.9261L700.177 25.9261L696.2 25.9204L696.197 27.9204ZM704.151 27.9317L708.128 27.9373L708.13 25.9373L704.154 25.9317L704.151 27.9317ZM712.104 27.9429L716.081 27.9486L716.084 25.9486L712.107 25.9429L712.104 27.9429ZM720.058 27.9542L724.035 27.9598L724.037 25.9598L720.061 25.9542L720.058 27.9542Z" fill="white"/>
<ellipse cx="22.7942" cy="25" rx="22.7941" ry="25" fill="#7331FF"/>
<ellipse cx="752.206" cy="25" rx="22.7941" ry="25" fill="#7331FF"/>
<path d="M13.498 22.07C15.738 21.16 17.348 19.8067 18.328 18.01C19.308 16.2133 19.8214 13.985 19.868 11.325H26.693V36H23.298V14.475L23.858 12.27H22.948C22.8314 13.8333 22.633 15.21 22.353 16.4C22.0964 17.59 21.6647 18.78 21.058 19.97C20.4747 21.1367 19.6347 22.1517 18.538 23.015C17.4647 23.8783 16.158 24.555 14.618 25.045L13.498 22.07Z" fill="white"/>
<path d="M743.05 24.085C743.05 19.9317 744.03 16.875 745.99 14.915C747.973 12.955 750.586 11.975 753.83 11.975C756.583 11.975 758.776 12.6983 760.41 14.145C762.043 15.5917 762.86 17.6333 762.86 20.27C762.86 22.23 762.393 23.98 761.46 25.52C760.526 27.0367 759.196 28.3317 757.47 29.405C755.743 30.455 753.806 31.33 751.66 32.03C749.513 32.7067 747.063 33.2667 744.31 33.71V34.655L746.655 34.06H762.86V37H743.4V31.015C744.076 30.9217 744.776 30.805 745.5 30.665C746.223 30.5017 747.273 30.2567 748.65 29.93C750.026 29.58 751.286 29.1367 752.43 28.6C753.573 28.04 754.705 27.3867 755.825 26.64C756.945 25.8933 757.831 24.96 758.485 23.84C759.138 22.72 759.465 21.5067 759.465 20.2C759.465 18.4967 758.986 17.19 758.03 16.28C757.096 15.37 755.72 14.915 753.9 14.915C751.52 14.915 749.676 15.6267 748.37 17.05C747.086 18.4733 746.445 20.8183 746.445 24.085H743.05Z" fill="white"/>
</svg>
