<svg width="50" height="50" viewBox="0 0 50 50" fill="none" xmlns="http://www.w3.org/2000/svg">
<circle cx="25" cy="25" r="25" fill="#FFC01E"/>
<path d="M18.2617 15.5487C18.3828 14.3351 18.8072 13.1715 19.4959 12.165C20.1846 11.1584 21.1154 10.3413 22.2027 9.78882C23.2899 9.23633 24.4987 8.96623 25.7178 9.00337C26.9368 9.04052 28.1269 9.38373 29.1785 10.0014C30.2301 10.6191 31.1094 11.4914 31.7355 12.538C32.3616 13.5846 32.7144 14.7719 32.7614 15.9906C32.8083 17.2092 32.548 18.4202 32.0043 19.5118C31.4708 20.583 30.6813 21.5056 29.7063 22.1981" stroke="black" stroke-width="2" stroke-linecap="round" stroke-linejoin="round"/>
<path d="M19.2543 12.6038C20.3794 13.7653 21.7267 14.6888 23.2159 15.3191C24.7052 15.9494 26.3061 16.2738 27.9233 16.2729C29.5138 16.2745 31.0885 15.9613 32.5567 15.3518" stroke="black" stroke-width="2" stroke-linecap="round" stroke-linejoin="round"/>
<path d="M23.9394 21.4651C23.5287 21.4651 23.1272 21.5869 22.7856 21.8151C22.444 22.0433 22.1778 22.3677 22.0206 22.7473C21.8634 23.1266 21.8223 23.5442 21.9025 23.9471C21.9826 24.3501 22.1804 24.7202 22.4709 25.0105C22.7613 25.301 23.1313 25.4989 23.5342 25.579C23.9372 25.6591 24.3548 25.6179 24.7343 25.4608C25.1138 25.3036 25.4381 25.0374 25.6662 24.6958C25.8946 24.3543 26.0163 23.9527 26.0163 23.542C26.0163 22.9912 25.7975 22.4629 25.408 22.0734C25.0185 21.6839 24.4903 21.4651 23.9394 21.4651Z" stroke="black" stroke-width="2" stroke-linecap="round" stroke-linejoin="round"/>
<path d="M15.6318 17.8955V19.3881C15.6318 20.4898 16.0695 21.5463 16.8485 22.3253C17.6274 23.1043 18.684 23.5419 19.7856 23.5419H21.7562" stroke="black" stroke-width="2" stroke-linecap="round" stroke-linejoin="round"/>
<path d="M39.0001 40.157C39.0002 37.6877 38.3223 35.2659 37.0405 33.1555C35.7639 31.0535 33.9371 29.3408 31.7576 28.2024" stroke="black" stroke-width="2" stroke-linecap="round" stroke-linejoin="round"/>
<path d="M12 40.1572C11.9997 37.6882 12.6771 35.2667 13.9584 33.1561C15.2333 31.0563 17.0574 29.3446 19.2336 28.2058" stroke="black" stroke-width="2" stroke-linecap="round" stroke-linejoin="round"/>
</svg>
