<svg width="50" height="50" viewBox="0 0 50 50" fill="none" xmlns="http://www.w3.org/2000/svg">
<circle cx="25" cy="25" r="25" fill="#FFC01E"/>
<path d="M38.8766 33.7309C38.7745 33.63 38.7025 33.5026 38.6689 33.363C38.6354 33.2234 38.6415 33.0772 38.6866 32.9409C38.8377 32.4841 38.8662 31.9957 38.7695 31.5245C38.6727 31.0532 38.454 30.6155 38.1352 30.2552C37.8164 29.8949 37.4086 29.6246 36.9526 29.4711C36.4967 29.3177 36.0084 29.2866 35.5366 29.3809C35.2553 26.2265 34.0442 23.2265 32.0566 20.7609C30.9366 19.1509 30.2566 18.1309 30.5266 17.3209C30.8237 16.3454 30.8889 15.3139 30.7171 14.3087C30.5452 13.3035 30.141 12.3523 29.5366 11.5309C28.972 10.7342 28.2215 10.0872 27.3501 9.64635C26.4788 9.20545 25.513 8.98389 24.5366 9.00091C23.5602 8.98389 22.5945 9.20545 21.7231 9.64635C20.8518 10.0872 20.1012 10.7342 19.5366 11.5309C18.9407 12.3565 18.5454 13.3097 18.3823 14.3148C18.2191 15.3199 18.2925 16.3492 18.5966 17.3209C18.8666 18.1309 18.1966 19.1509 17.0666 20.7609C15.0611 23.2206 13.8324 26.2211 13.5366 29.3809C13.062 29.2781 12.5686 29.3029 12.1067 29.4526C11.6447 29.6024 11.2306 29.8718 10.9066 30.2334C10.5825 30.5951 10.36 31.0361 10.2616 31.5117C10.1633 31.9872 10.1926 32.4804 10.3466 32.9409C10.3918 33.0772 10.3979 33.2234 10.3643 33.363C10.3307 33.5026 10.2588 33.63 10.1566 33.7309L9.80663 34.0809C9.49038 34.3968 9.2559 34.785 9.12347 35.2119C8.99104 35.6388 8.96467 36.0915 9.04663 36.5309C9.13116 36.9648 9.31759 37.3724 9.59056 37.7202C9.86352 38.0679 10.2152 38.3458 10.6166 38.5309L15.2466 40.6309C15.8746 40.9166 16.5568 41.0633 17.2466 41.0609C17.5645 41.0712 17.8826 41.0511 18.1966 41.0009C18.8079 40.8739 19.3886 40.6294 19.9066 40.2809C21.3991 40.7773 22.964 41.0206 24.5366 41.0009C26.1094 41.0216 27.6744 40.7782 29.1666 40.2809C29.6846 40.6294 30.2654 40.8739 30.8766 41.0009C31.1864 41.0605 31.5012 41.0906 31.8166 41.0909C32.5065 41.0933 33.1887 40.9466 33.8166 40.6609L38.4466 38.5609C38.8485 38.375 39.201 38.0971 39.4755 37.7496C39.75 37.4021 39.9388 36.9949 40.0266 36.5609C40.1047 36.1207 40.0755 35.6682 39.9415 35.2417C39.8075 34.8152 39.5725 34.4273 39.2566 34.1109L38.8766 33.7309ZM21.1466 12.7009C21.5307 12.163 22.0402 11.727 22.6309 11.4308C23.2217 11.1345 23.8759 10.987 24.5366 11.0009C25.1982 10.9817 25.8543 11.1269 26.4459 11.4236C27.0376 11.7203 27.5463 12.1592 27.9266 12.7009C28.3398 13.2706 28.6145 13.9286 28.7291 14.623C28.8436 15.3173 28.7949 16.0287 28.5866 16.7009C28.4946 16.9992 28.4442 17.3088 28.4366 17.6209C28.389 17.5087 28.325 17.4043 28.2466 17.3109C27.2228 16.4162 25.8953 15.9474 24.5366 16.0009C23.1811 15.945 21.855 16.4061 20.8266 17.2909C20.7483 17.3843 20.6843 17.4887 20.6366 17.6009C20.6454 17.2911 20.6117 16.9816 20.5366 16.6809C20.3269 16.0151 20.2728 15.31 20.3786 14.6199C20.4843 13.9299 20.7471 13.2734 21.1466 12.7009ZM25.5366 18.1109L24.5366 18.8009L23.5366 18.1209C24.1965 17.9892 24.8755 17.9858 25.5366 18.1109ZM17.8066 39.0009C17.2374 39.1191 16.6454 39.0526 16.1166 38.8109L11.5366 36.7409C11.423 36.6891 11.3236 36.6104 11.2472 36.5116C11.1707 36.4128 11.1194 36.2968 11.0978 36.1738C11.0761 36.0508 11.0847 35.9243 11.1229 35.8053C11.161 35.6863 11.2275 35.5784 11.3166 35.4909L11.6666 35.1409C12.0297 34.7777 12.2846 34.3207 12.4029 33.8209C12.5212 33.3212 12.4983 32.7984 12.3366 32.3109C12.2878 32.1758 12.2789 32.0296 12.3108 31.8895C12.3427 31.7495 12.4141 31.6215 12.5166 31.5209C12.6598 31.3769 12.8536 31.2943 13.0566 31.2909C13.1395 31.278 13.2238 31.278 13.3066 31.2909C13.7197 31.4237 14.158 31.4579 14.5866 31.3909H14.6466L14.9566 31.3209H15.0266C15.4457 31.1966 15.8272 30.9697 16.1366 30.6609L16.4866 30.3109C16.5758 30.2222 16.6852 30.1567 16.8055 30.1201C16.9258 30.0835 17.0532 30.0769 17.1766 30.1009C17.2982 30.1245 17.4124 30.1768 17.5098 30.2533C17.6072 30.3298 17.6849 30.4284 17.7366 30.5409L19.8366 35.1609C20.0765 35.6935 20.1464 36.2872 20.0366 36.8609C19.9196 37.3988 19.645 37.8897 19.2478 38.2708C18.8507 38.652 18.3489 38.9062 17.8066 39.0009ZM21.4266 38.6209C21.6718 38.1842 21.8472 37.7118 21.9466 37.2209C22.147 36.2395 22.0278 35.2197 21.6066 34.3109L19.5366 29.7109C19.3811 29.3637 19.1549 29.0527 18.8725 28.7976C18.5901 28.5426 18.2577 28.3492 17.8965 28.2298C17.5352 28.1103 17.1531 28.0674 16.7743 28.1037C16.3956 28.1401 16.0286 28.2549 15.6966 28.4409C16.1554 26.0542 17.1847 23.8138 18.6966 21.9109C19.5811 20.8424 20.2287 19.5983 20.5966 18.2609C20.6477 18.4943 20.7875 18.6988 20.9866 18.8309L23.9866 20.8309C24.1493 20.9403 24.3406 20.9994 24.5366 21.0009C24.7361 21.0014 24.9311 20.9422 25.0966 20.8309L28.0966 18.8309C28.2905 18.6955 28.4262 18.4919 28.4766 18.2609C28.8445 19.5983 29.4921 20.8424 30.3766 21.9109C31.8886 23.8138 32.9178 26.0542 33.3766 28.4409C32.8264 28.134 32.1877 28.0246 31.5666 28.1309C31.1323 28.218 30.7248 28.4065 30.3772 28.6811C30.0296 28.9557 29.7519 29.3086 29.5666 29.7109L27.4666 34.3409C27.1536 35.0223 27.0066 35.7683 27.0379 36.5176C27.0692 37.2668 27.2778 37.998 27.6466 38.6509C25.5995 39.1173 23.4737 39.1173 21.4266 38.6509V38.6209ZM37.5866 36.7109L32.9566 38.8109C32.4281 39.0533 31.8358 39.1198 31.2666 39.0009C30.7295 38.8951 30.2358 38.6325 29.8477 38.2463C29.4597 37.8601 29.1949 37.3676 29.0866 36.8309C28.9769 36.2572 29.0467 35.6635 29.2866 35.1309L31.3866 30.5109C31.4383 30.3984 31.5161 30.2998 31.6135 30.2233C31.7109 30.1468 31.8251 30.0945 31.9466 30.0709H32.0966C32.2981 30.0727 32.4913 30.1514 32.6366 30.2909L32.9866 30.6409C33.2976 30.9478 33.6785 31.1743 34.0966 31.3009H34.1666L34.4766 31.3709C34.9073 31.4509 35.3512 31.4199 35.7666 31.2809C35.9062 31.23 36.0574 31.22 36.2024 31.2522C36.3475 31.2843 36.4803 31.3571 36.5854 31.4622C36.6904 31.5672 36.7633 31.7001 36.7954 31.8451C36.8275 31.9902 36.8175 32.1413 36.7666 32.2809C36.6014 32.7672 36.5757 33.29 36.6923 33.7902C36.8089 34.2904 37.0633 34.7479 37.4266 35.1109L37.7766 35.4609C37.867 35.547 37.9344 35.6543 37.9728 35.773C38.0113 35.8918 38.0194 36.0182 37.9966 36.1409C37.9821 36.2667 37.9372 36.387 37.8658 36.4916C37.7943 36.5961 37.6985 36.6817 37.5866 36.7409V36.7109Z" fill="black"/>
</svg>
