<svg width="50" height="50" viewBox="0 0 50 50" fill="none" xmlns="http://www.w3.org/2000/svg">
<circle cx="25" cy="25" r="25" fill="#FFC01E"/>
<path d="M39.0034 19.9442C38.5467 19.4711 37.9097 19.1762 37.2117 19.1767H34.3384V14.7142L29.776 10H29.5285H16.4076V19.1767H13.5344C12.8358 19.1762 12.1984 19.4711 11.7416 19.9442C11.2842 20.4164 10.9995 21.0747 11 21.7954V32.1451C10.9995 32.8667 11.284 33.5259 11.7419 33.9971C12.1985 34.4702 12.8363 34.7642 13.5344 34.7637H16.4075V41H34.3384V34.7637H37.2116C37.9089 34.7642 38.5464 34.4702 39.0031 33.9971C39.4612 33.5259 39.7463 32.8667 39.7459 32.1451V21.7954C39.7464 21.0746 39.461 20.4164 39.0034 19.9442ZM29.3292 11.285L32.9811 15.0587H29.3292V11.285ZM17.603 11.235L28.1338 11.2359V16.2942H33.143V19.1767H17.603V11.235ZM33.143 39.765H17.603V34.1462H17.6021V28.295H33.1421V34.7637H33.143V39.765ZM38.5505 32.1451C38.5503 32.5297 38.4013 32.8714 38.1583 33.1241C37.9142 33.3745 37.5833 33.5278 37.2117 33.5287H34.3377V27.0591H16.4066V33.5287H13.5344C13.1615 33.5278 12.8309 33.3745 12.5872 33.1241C12.3444 32.8714 12.1957 32.5297 12.1954 32.1451V21.7954C12.1957 21.4116 12.3441 21.0695 12.5872 20.8172C12.8313 20.5663 13.1619 20.4127 13.5344 20.4117H16.4075H34.3384H37.2116C37.5826 20.4127 37.9139 20.5659 38.158 20.8172C38.4015 21.07 38.5502 21.4116 38.5504 21.7954V32.1451H38.5505Z" fill="black"/>
<path d="M30.5533 30.353H20.1927V31.5885H30.5533V30.353Z" fill="black"/>
<path d="M30.5533 33.5298H20.1927V34.7648H30.5533V33.5298Z" fill="black"/>
<path d="M25.0886 36.3535H20.1927V37.5886H25.0886V36.3535Z" fill="black"/>
<path d="M31.059 22.9189C30.5162 22.9189 30.0765 23.3735 30.0765 23.9346C30.0765 24.4947 30.5162 24.9493 31.059 24.9493C31.6017 24.9493 32.0416 24.4947 32.0416 23.9346C32.0416 23.3735 31.6018 22.9189 31.059 22.9189Z" fill="black"/>
<path d="M35.2418 22.9189C34.6991 22.9189 34.2592 23.3735 34.2592 23.9346C34.2592 24.4947 34.6991 24.9493 35.2418 24.9493C35.7842 24.9493 36.2242 24.4947 36.2242 23.9346C36.2242 23.3735 35.7842 22.9189 35.2418 22.9189Z" fill="black"/>
</svg>
