<svg width="50" height="50" viewBox="0 0 50 50" fill="none" xmlns="http://www.w3.org/2000/svg">
<circle cx="25" cy="25" r="25" fill="#FFC01E"/>
<path d="M26.6289 31.3687H24.6316C24.3131 31.3687 24.0526 31.6292 24.0526 31.9476C24.0526 32.266 24.3131 32.5265 24.6316 32.5265H26.6289C26.9473 32.5265 27.2079 32.266 27.2079 31.9476C27.2079 31.6292 26.9473 31.3687 26.6289 31.3687Z" fill="black"/>
<path d="M41.9711 31.9474C41.9711 31.6289 41.7105 31.3684 41.3921 31.3684H39.3947V16.8947C39.3947 15.3026 38.0921 14 36.5 14H14.5C12.9079 14 11.6053 15.3026 11.6053 16.8947V31.3684H9.57895C9.26053 31.3684 9 31.6289 9 31.9474V33.1053C9 34.6974 10.3026 36 11.8947 36H39.1053C40.6974 36 42 34.6974 42 33.1053L41.9711 31.9474ZM40.8421 33.1053C40.8421 34.0605 40.0605 34.8421 39.1053 34.8421H11.8947C10.9395 34.8421 10.1579 34.0605 10.1579 33.1053V32.5263H21.7658C22.0842 32.5263 22.3447 32.2658 22.3447 31.9474C22.3447 31.6289 22.0842 31.3684 21.7658 31.3684H12.7632V16.8947C12.7632 15.9395 13.5447 15.1579 14.5 15.1579H36.5C37.4553 15.1579 38.2368 15.9395 38.2368 16.8947V31.3684H29.5526C29.2342 31.3684 28.9737 31.6289 28.9737 31.9474C28.9737 32.2658 29.2342 32.5263 29.5526 32.5263H40.8421V33.1053Z" fill="black"/>
<path d="M37.0789 29.3422V17.1843C37.0789 16.6922 36.7026 16.3159 36.2105 16.3159H14.7894C14.2973 16.3159 13.921 16.6922 13.921 17.1843V29.3422C13.921 29.8343 14.2973 30.2107 14.7894 30.2107H36.2105C36.7026 30.2107 37.0789 29.8343 37.0789 29.3422ZM35.921 29.0528H15.0789V17.4738H35.921V29.0528Z" fill="black"/>
</svg>
