<svg width="50" height="50" viewBox="0 0 50 50" fill="none" xmlns="http://www.w3.org/2000/svg">
<circle cx="25" cy="25" r="25" fill="#FFC01E"/>
<path d="M27.9025 10.0046C27.8904 10.0095 27.8759 10.0168 27.8638 10.024L10.5038 13.2988C10.2084 13.3545 9.99524 13.6161 10.0001 13.9189V37.0361C9.99524 37.3389 10.2084 37.6005 10.5038 37.6562L27.8638 40.9891C28.043 41.023 28.2295 40.977 28.3724 40.8607C28.5128 40.7445 28.5976 40.5725 28.6 40.3884V34.8077H40.38C40.7215 34.8077 41 34.5292 41 34.1876V16.8255C41 16.484 40.7215 16.2054 40.38 16.2054H28.6V10.6247C28.6025 10.4455 28.525 10.2759 28.3918 10.1572C28.2585 10.0386 28.0793 9.98284 27.9025 10.0046ZM27.36 11.3611V16.6317C27.3237 16.7528 27.3237 16.8788 27.36 16.9999V34.0714C27.3431 34.1537 27.3431 34.2409 27.36 34.3233V39.6521L11.2401 36.5323V14.4227L27.36 11.3611ZM28.6 17.4456H39.76V33.5676H28.6V31.7073H29.5882C30.0217 31.6444 33.5552 27.1222 32.9981 26.6886C32.5646 26.255 31.0752 28.6602 29.2782 29.9634H28.6V25.8166C29.5591 26.4561 30.4503 26.8921 30.6538 26.6886C30.971 26.3713 29.794 25.555 28.6 24.4408V21.0498H29.6463L30.3438 21.6698C30.4673 21.7934 30.5884 21.7934 30.7119 21.6698L31.1963 21.166C31.3198 21.0425 31.3198 20.9214 31.1963 20.7979L29.7819 19.3639C29.7189 19.301 29.593 19.2477 29.53 19.2477H28.6V17.4456ZM21.8963 19.1895L16.2582 19.8096V31.0291L22.09 31.5911V29.2852L18.4282 29.1108V26.4367L21.6638 26.4948V24.2664L18.4282 24.3245V21.728L21.8963 21.4761V19.1895ZM33.7538 19.3058C33.3203 19.3688 29.8473 23.891 30.3438 24.3245C30.7773 24.7581 32.2667 22.3529 34.0638 21.0498H36.0981V23.3944L35.4781 24.0145C35.3546 24.138 35.3546 24.2591 35.4781 24.3827L35.9819 24.8865C36.1054 25.01 36.2265 25.01 36.35 24.8865L37.7838 23.4526C37.8467 23.3896 37.9 23.283 37.9 23.22V19.7321C37.9 19.485 37.7184 19.3058 37.5319 19.3058H33.7538ZM32.9013 24.2858C32.8407 24.2882 32.7778 24.2931 32.7463 24.3245C32.3128 24.7581 34.7952 26.1896 36.0981 27.9869V29.9634H33.7538L33.0563 29.3433C32.9328 29.2198 32.8117 29.2198 32.6881 29.3433L32.2038 29.8471C32.0803 29.9706 32.0803 30.0917 32.2038 30.2153L33.6181 31.6492C33.6811 31.7122 33.8071 31.7655 33.87 31.7655H37.4738C37.6602 31.7655 37.8419 31.5838 37.8419 31.3973V27.735C37.8419 27.2699 33.8143 24.2543 32.9013 24.2858Z" fill="black"/>
</svg>
