<svg width="50" height="50" viewBox="0 0 50 50" fill="none" xmlns="http://www.w3.org/2000/svg">
<circle cx="25" cy="25" r="25" fill="#FFC01E"/>
<path d="M25.5 8C15.834 8 8 15.834 8 25.5C8 35.166 15.834 43 25.5 43C35.166 43 43 35.166 43 25.5C43 15.834 35.166 8 25.5 8ZM36.4238 36.417C35.002 37.8389 33.3545 38.9531 31.5156 39.7256C29.6152 40.5322 27.5918 40.9355 25.5 40.9355C23.415 40.9355 21.3916 40.5254 19.4844 39.7256C17.6455 38.9463 15.9912 37.832 14.5762 36.417C13.1543 34.9951 12.04 33.3477 11.2676 31.5088C10.4609 29.6084 10.0508 27.585 10.0508 25.5C10.0508 23.415 10.4609 21.3916 11.2607 19.4844C12.04 17.6455 13.1543 15.9912 14.5693 14.5762C15.998 13.1543 17.6455 12.04 19.4844 11.2607C21.3916 10.4609 23.415 10.0508 25.5 10.0508C27.585 10.0508 29.6084 10.4609 31.5156 11.2607C33.3545 12.04 35.0088 13.1543 36.4238 14.5693C37.8457 15.9912 38.96 17.6387 39.7324 19.4775C40.5391 21.3779 40.9424 23.4014 40.9424 25.4932C40.9424 27.5781 40.5322 29.6016 39.7324 31.5088C38.9531 33.3477 37.8389 35.002 36.4238 36.417Z" fill="black"/>
<path d="M23.9414 25.3018C23.3398 24.9941 22.499 24.6729 21.5762 24.6729C21.4736 24.6729 21.3643 24.6797 21.2617 24.6865C20.3389 24.7617 19.498 25.001 18.9033 25.2061C18.7324 25.2676 18.5479 25.3359 18.3633 25.4111L16.75 31.0234C17.9736 30.5312 18.9648 30.333 19.792 30.333C21.1592 30.333 22.1094 30.8594 23.0117 31.4609C23.3467 30.333 24.4746 26.4775 24.6865 25.7393C24.4473 25.5889 24.2012 25.4385 23.9414 25.3018Z" fill="black"/>
<path d="M25.6572 26.4502L24.0439 32.0557C24.0439 32.0557 25.9307 33.2178 27.3525 33.2178C28.248 33.2178 29.3213 32.999 30.668 32.4453L32.2266 27.0039C31.0439 27.4277 30.0254 27.585 29.1709 27.585C27.2842 27.5918 26.1494 26.8467 25.6572 26.4502Z" fill="black"/>
<path d="M21.8838 23.3193C23.1963 23.333 24.126 23.8594 24.9941 24.4336C25.3223 23.3125 26.3066 19.9355 26.6416 18.7939V18.7871C26.6416 18.7871 25.4795 18.0898 24.6729 17.8848C24.29 17.7959 23.8525 17.7344 23.3672 17.7344C23.3604 17.7344 23.3535 17.7344 23.3467 17.7344C22.5264 17.748 21.542 17.9463 20.332 18.4453L18.7393 24.0508C19.9834 23.5449 20.9883 23.3193 21.8359 23.3193C21.8496 23.3193 21.8633 23.3193 21.8838 23.3193Z" fill="black"/>
<path d="M27.6602 19.5117L26.0264 25.1719C26.0332 25.1787 26.04 25.1787 26.04 25.1855C26.9424 25.7871 28.1113 26.2725 29.5195 26.2725C30.4492 26.2725 31.4883 26.0605 32.623 25.5273V25.5205C32.623 25.5205 32.6299 25.5205 32.6367 25.5137L34.25 19.9561C33.0605 20.4756 32.0146 20.667 31.1191 20.667C29.3486 20.6738 28.1797 19.915 27.6602 19.5117Z" fill="black"/>
</svg>
