<svg width="368" height="336" viewBox="0 0 368 336" fill="none" xmlns="http://www.w3.org/2000/svg">
<path d="M153.544 332.112C108.393 349.288 6.53731 306.106 38.7525 270.108C47.1075 260.772 71.272 256.706 63.3969 217.678C53.5838 169.045 -21.0523 210.304 5.79114 111.261C13.0606 84.4389 35.9566 73.8745 63.3972 69.4854C94.8869 64.4486 110.271 78.7295 140.791 69.4854C181.975 57.0116 147.841 29.4948 185.626 8.90237C224.253 -12.1491 264.847 12.6305 300.838 37.9253C337.526 63.7097 292.088 129.536 308.753 171.167C335.642 238.335 407.775 272.667 336.476 284.958C295.117 292.089 269.473 252.632 228.3 260.772C184.59 269.414 195.188 316.269 153.544 332.112Z" fill="#7331FF"/>
</svg>
