<svg width="470" height="99" viewBox="0 0 470 99" fill="none" xmlns="http://www.w3.org/2000/svg">
<path d="M2.30366 60.8693C-6.19909 46.3693 17.1234 43.7861 58.8231 30.3694C111.44 13.44 160.357 39.5088 223.379 26.8693C260.692 19.386 272.954 -7.21833 309.909 1.86927C331.182 7.10077 336.38 21.5303 356.425 30.3693C391.896 46.0107 457.034 -6.50593 468.963 30.3693C476.296 53.0363 414.698 58.9994 398.939 76.8694C377.38 101.316 339.909 69.6307 309.909 83.5C252.996 109.811 231.548 70.7027 180.865 70.8694C130.181 71.036 98.5664 120.5 74.5664 87C50.5664 53.5 10.8064 75.3693 2.30366 60.8693Z" fill="#FFC01E"/>
</svg>
